PathFileType	4	(X/Y/Z)	/Users/rkoike/Documents/python/sports2d/webcam_20250606_145141/webcam_20250606_145141_px_person01.trc
DataRate	CameraRate	NumFrames	NumMarkers	Units	OrigDataRate	OrigDataStartFrame	OrigNumFrames
30	30	6	22	m	30	2516	4026
Frame#	Time	Hip			RHip			RKnee			RAnkle			RBigToe			RSmallToe			RHeel			LHip			LKnee			LAnkle			LBigToe			LSmallToe			LHeel			Neck			Head			Nose			RShoulder			RElbow			RWrist			LShoulder			LElbow			LWrist			
		X1	Y1	Z1	X2	Y2	Z2	X3	Y3	Z3	X4	Y4	Z4	X5	Y5	Z5	X6	Y6	Z6	X7	Y7	Z7	X8	Y8	Z8	X9	Y9	Z9	X10	Y10	Z10	X11	Y11	Z11	X12	Y12	Z12	X13	Y13	Z13	X14	Y14	Z14	X15	Y15	Z15	X16	Y16	Z16	X17	Y17	Z17	X18	Y18	Z18	X19	Y19	Z19	X20	Y20	Z20	X21	Y21	Z21	X22	Y22	Z22
2516	83.88750310559006	561.2618850513713	710.7182532404636	0.0	446.6249855680443	705.4230656689865	0.0	333.5519832007904	705.899130899419	0.0	728.8815402870234	707.2774758297251	0.0	1135.5714668227663	293.9095748762961	0.0	1249.8014322916667	114.45313072204588	0.0			0.0	699.6884728930526	704.7116242777425	0.0	825.3990378962403	698.8448790955666	0.0	754.2104262802904	694.6130328330916	0.0	1210.2476546499465	390.76007607248084	0.0	1249.801432291667	144.36523938179016	0.0	1173.6548700871806	503.36829283057574	0.0	574.5499498861559	397.8901675365996	0.0	543.1059186208962	118.45547491260021	0.0	527.9997880302058	276.57157866459943	0.0	397.37613464191276	469.6625541411079	0.0	318.89782909250044	683.8149510846919	0.0	306.75192743672415	701.8727241389972	0.0	796.2225483093814	475.2985247554442	0.0	898.761030402103	709.3912849312536	0.0	709.6367749282823	710.2067500037805	0.0
2517	83.92084472049689	567.6769894922668	716.291126850609	0.0	450.3659926803548	706.1111631353803	0.0	304.5922648776901	709.0360980450421	0.0	728.8815402870234	707.2774758297251	0.0	1135.5714668227663	293.9095748762961	0.0	1249.8014322916667	114.4531307220459	0.0			0.0	699.2079348601713	703.3291830987824	0.0	829.5197894690305	704.5242085776134	0.0	754.2104262802906	694.6130328330916	0.0	1210.2476546499465	390.76007607248084	0.0	1249.801432291667	144.36523938179016	0.0	1173.6548700871806	503.36829283057574	0.0	577.3057356333287	395.3927046308968	0.0	542.5216801333942	115.19211631412547	0.0	527.5554382636868	274.2802715752322	0.0	396.70675397853336	469.2256596963632	0.0	334.09794676580475	675.2294616850048	0.0	292.06317121457636	701.0441297146035	0.0	799.8401269984096	477.17411527698596	0.0	898.2637574214876	705.7868257491964	0.0	808.3712050010536	711.4823513576979	0.0
2518	83.95418633540372	570.5995355912988	722.7775754982454	0.0	453.36255126427136	711.308149244697	0.0	279.5883760541904	712.9673702807532	0.0	728.8815402870234	707.277475829725	0.0	1135.5714668227663	293.9095748762961	0.0	1249.8014322916667	114.45313072204588	0.0			0.0	695.7329567258396	706.4277138129019	0.0	832.1627175324578	710.7691881260225	0.0	754.2104262802906	694.6130328330916	0.0	1210.2476546499465	390.76007607248084	0.0	1249.801432291667	144.36523938179016	0.0	1173.6548700871806	503.36829283057574	0.0	580.2403267076371	393.79620959894146	0.0	546.5247327176075	110.86233832934893	0.0	533.4961182129532	273.03135082768995	0.0	396.89509536572166	465.5256824705613	0.0	334.8968231265527	672.4605502720747	0.0	288.0006609397749	699.7040494377534	0.0	799.4294427529346	475.1899823053039	0.0	890.4090440183929	702.1656475645226	0.0	870.8759058594364	707.6551743108926	0.0
2519	83.98752795031055	565.7235746492822	724.0496829931345	0.0	451.47160390028887	714.5623838642475	0.0	269.25657088600514	722.1785591926466	0.0	728.8815402870234	707.277475829725	0.0	1135.5714668227663	293.9095748762961	0.0	1249.8014322916667	114.45313072204588	0.0			0.0	693.2733086980513	708.933118710289	0.0	827.5063605779753	721.2100438934353	0.0	754.2104262802906	694.6130328330916	0.0	1210.2476546499465	390.76007607248084	0.0	1249.801432291667	144.36523938179016	0.0	1173.6548700871806	503.36829283057574	0.0	581.7077216161703	394.61193292375873	0.0	552.2946576805482	109.16130036006221	0.0	540.0067148377669	272.09845969586195	0.0	394.76493653860115	461.72382488396835	0.0	312.88482206417564	679.5589798508042	0.0	303.24853689651945	699.6525821766028	0.0	797.1958903513104	474.8215964036619	0.0	883.7341665142451	700.873296062945	0.0	858.5865671800522	703.6389537722133	0.0
2520	84.02086956521738	557.9023590206707	721.9028223384647	0.0	444.5549784548472	711.744469858213	0.0	276.52137560135526	740.4560195181165	0.0	728.8815402870234	707.2774758297251	0.0	1135.5714668227663	293.9095748762961	0.0	1249.8014322916667	114.45313072204588	0.0			0.0	691.7093564323444	708.2889243762871	0.0	811.3848273928752	739.0441582219834	0.0	754.2104262802904	694.6130328330916	0.0	1210.2476546499465	390.76007607248084	0.0	1249.801432291667	144.36523938179016	0.0	1173.6548700871806	503.36829283057574	0.0	581.0982970644023	396.4215649332937	0.0	557.0801089288349	111.46237238524127	0.0	541.9831189871677	271.3409268793543	0.0	390.615123161985	461.4814095270629	0.0	288.6234114709387	691.2555482979942	0.0	340.73062772453716	701.0240089438229	0.0	797.7813295165681	478.9540127881205	0.0	880.4481516936509	703.3138538170514	0.0	788.5813465414835	698.6032775047253	0.0
2521	84.05421118012421	557.4971965200278	729.8336375610205	0.0	441.2572205237861	713.5040923654885	0.0	295.1404074458251	765.9094709937973	0.0	728.8815402870234	707.2774758297251	0.0	1135.5714668227663	293.9095748762961	0.0	1249.8014322916667	114.4531307220459	0.0			0.0	688.8535754424141	715.9767629866303	0.0	786.7440394483422	762.8095720943109	0.0	754.2104262802906	694.6130328330916	0.0	1210.2476546499465	390.76007607248084	0.0	1249.801432291667	144.36523938179016	0.0	1173.6548700871806	503.36829283057574	0.0	580.836434559785	394.9156802530606	0.0	559.757464672632	113.4289145802797	0.0	541.253705801442	270.76250469476986	0.0	388.8456186391531	463.17083943071157	0.0	284.30386720356125	699.680213125755	0.0	380.3795415860444	705.484437214945	0.0	800.32174675304	481.240299003529	0.0	877.1922632812043	707.8463119750394	0.0	711.0870670234739	694.9886037972608	0.0
